<?xml version="1.0" encoding="utf-8"?>
<!-- Generator: Adobe Illustrator 23.0.1, SVG Export Plug-In . SVG Version: 6.00 Build 0)  -->
<svg version="1.1" id="Layer_1" xmlns="http://www.w3.org/2000/svg" xmlns:xlink="http://www.w3.org/1999/xlink" x="0px" y="0px"
	 viewBox="0 0 551.6 649.3" style="enable-background:new 0 0 551.6 649.3;" xml:space="preserve">
<style type="text/css">
	.st0{fill:#EC1B2E;}
</style>
<title>arsenal-fc_red-01</title>
<g>
	<path class="st0" d="M175.8,363c0,55.2,44.7,99.9,99.9,99.9s99.9-44.7,99.9-99.9s-44.7-99.9-99.9-99.9
		C220.6,263.1,175.8,307.8,175.8,363z M269.1,281.5v53.7c-5.4,1.3-10.3,4.1-14.1,8.2l-46.5-26.8
		C222.4,296.3,244.7,283.5,269.1,281.5z M202,398.1c-10.6-22.1-10.6-47.8-0.2-70l46.6,26.7c-1.6,5.3-1.6,11,0,16.3L202,398.1z
		 M268.4,444.3c-22.2-1.9-42.6-12.9-56.5-30.4c-1-1.3-2-2.6-3-3.9l46.7-27c0.5,0.5,1.1,1.1,1.7,1.6c3.2,2.7,7,4.7,11.1,5.8V444.3z
		 M261.2,363c0-8,6.5-14.5,14.5-14.5s14.5,6.5,14.5,14.5c0.1,8-6.4,14.5-14.5,14.5C267.7,377.5,261.2,371,261.2,363z M283,444.4
		v-53.9c4.9-1.3,9.3-3.9,12.9-7.4l46.7,27C328.8,429.7,307,442.2,283,444.4z M349.6,328c11.6,24,9.2,50.6,0.3,69.4l-46.7-26.9
		c1.4-5.1,1.4-10.5-0.1-15.6L349.6,328z M282.4,281.5c24.4,2,46.7,14.8,60.6,35l-46.5,26.8c-3.8-4-8.7-6.9-14.1-8.2V281.5z"/>
	<path class="st0" d="M216.1,276.4h-87.4c-10.8,0-20.1,8.5-23.7,20.5h-9.1c-2.3,0-5.8,2.8-5.8,11.4s3.5,11.4,5.8,11.4h9.1
		c3.7,12,12.9,20.5,23.7,20.5c10.4,0,25.3-0.4,44.6-1.1C179.3,313.6,194.5,291.2,216.1,276.4z"/>
	<path class="st0" d="M263.9,287.5c-18.8,2.8-35.8,12.7-47.7,27.5l38,21.9c2.9-2.4,6.2-4.3,9.7-5.6V287.5z"/>
	<path class="st0" d="M335.3,315c-11.8-14.9-28.8-24.7-47.6-27.5l-0.1,43.9c3.5,1.2,6.7,3.1,9.6,5.4L335.3,315z"/>
	<path class="st0" d="M309.4,365.1c10.8-2.9,22.1-5.8,33.6-8.2c2.8-0.6,5.8-1.2,8.9-1.9c-0.7-6.7-2.3-13.3-4.8-19.5L309,357.4
		c0.3,1.8,0.5,3.6,0.5,5.5C309.5,363.6,309.5,364.4,309.4,365.1z"/>
	<path class="st0" d="M275.7,353.6c-5.2,0-9.4,4.2-9.4,9.4s4.2,9.4,9.3,9.4c5.2,0,9.4-4.2,9.4-9.4
		C285.1,357.8,280.9,353.6,275.7,353.6z"/>
	<path class="st0" d="M204.4,335.6c-6.9,17.7-6.9,37.4,0.1,55l37.9-22c-0.6-3.7-0.6-7.5,0-11.2L204.4,335.6z"/>
	<path class="st0" d="M519.9,58.2C364.6-11.2,187-11.2,31.7,58.2C14.6,127.5,5.4,194.6,5.2,236.4c-0.3,43.9,6,87.7,18.7,129.7
		c12.3,40,30.5,78,54.1,112.6c23.9,34.9,52.6,66.2,85.3,93.1c31.3,26,73.8,54.5,112.5,71.2c38.7-16.7,81.2-45.2,112.5-71.2
		c32.6-26.9,61.3-58.3,85.3-93.1c23.6-34.6,41.8-72.6,54.1-112.6c12.8-42.1,19.1-85.8,18.7-129.7C546.2,194.6,537,127.5,519.9,58.2z
		 M527.4,276.4H335.3c24.3,16.8,40.5,43,44.5,72.2l36.6-8.7c8.2-1.8,11.6-7.4,12.4-12.4l92.1-6.2c-2.7,13.4-6,26.7-10,39.8
		c-11.8,38.4-29.2,74.7-51.8,107.9c-23,33.5-50.6,63.7-82,89.5c-29.3,24.3-62.6,45.7-98.8,63.9c33.5-21.2,64.5-45.9,92.5-73.9
		c28.8-28.6,53.4-61.1,73.2-96.6c19.6-35.2,33.6-74.4,41.8-113.6c0.6-3.1,1.3-6.3,1.9-9.6l-10.9,0.7c-7.2,41.2-20.9,81-40.5,117.9
		c-45.1,85-106.3,134.4-160.5,169.9c-51.9-33.9-110.2-80.7-154.6-159c-3.2,1-5.1,1.6-8.6,2.5c18.9,32.1,41.8,61.6,68.2,87.8
		c28,28,59,52.7,92.5,73.9c-36.2-18.2-69.5-39.6-98.8-63.9c-31.4-25.9-59-56-82-89.5c-1.8-2.6-3.5-5.2-5.2-7.9
		c32.6-5.5,68.7-19.4,102-38.4c-8.5-12.2-14.3-26-17-40.6c-8.3,10.3-18.3,20.7-29.7,29.1C124.3,425,102,438.7,78,446.1
		c-15.7-26.8-28.3-55.3-37.4-85c-12.3-40.4-18.3-82.4-18-124.6c0.2-38.8,10-109.8,23.9-165.7c12.3-5.3,24.8-10.2,37.4-14.6
		c-13,56.3-23.8,117.9-26.4,158c-2.9,45.7,1.1,90.2,8.2,124.2c6.8,32.6,17.5,64.3,31.8,94.4c2.7-1.3,5.6-2.7,8.3-4.1
		c-38.2-82.1-40.4-160.9-36.3-215.9c3-40.1,13.7-104.4,27-160.9c116.5-37.8,241.9-37.8,358.4,0c13.3,56.4,24.1,120.7,27,160.9
		c1.5,19.4,1.8,38.9,1,58.4h11.2c1-19,0.9-38-0.2-57c-2.5-40.1-13.4-101.7-26.4-158c12.6,4.4,25.1,9.3,37.4,14.6
		c13.9,56,23.7,126.9,23.9,165.7C529.1,250,528.5,263.2,527.4,276.4z"/>
	<path class="st0" d="M459.4,121.6l-28.1-4.5c2.3,7.6,3.9,19.3,4.9,27.7l4.2,39c0.9,7.4,1.4,14.9,1.5,22.4v0.9l-1.1-2.8
		c-1.9-4.8-3.2-11.4-3.9-20.4c0-0.1-1.2-12.5-1.2-12.5c-1.5-19.8-12.4-28.8-36-28.8c-6.8,0.2-13.6,1.1-20.2,2.8l1.6,22.6l6.3-3.9
		c5.2-3.2,9.3-4.5,13.9-4.5c3.7,0,6.2,1.4,7.3,4c-5.2,0.8-10.3,2.3-15.2,4.5c-8.4,3.7-13.8,9.1-16,15.6c0-0.2,0-0.4,0-0.5l-1-20.7
		c-0.5-13.4-8.8-21.7-21.7-21.7c-5.7-0.1-11.2,1.7-15.8,5c-0.2-0.8-0.5-1.5-0.8-2.2l-1.1-2.4l-24.2-1.1c1.1,4.4,2.6,16.5,2.9,21.3
		c-1.3-6.6-4.7-13.6-11.2-18.1c-5.3-3.5-11.6-5.4-17.9-5.3c-9.1,0-17.8,3.7-24.3,10.1c-6.1,6.2-9.5,14.8-9.9,24.9
		c-2.6-2.7-5.7-4.9-9.1-6.4l-11.1-5.3l-0.6-0.3c-2.7-1.2-2.8-1.7-2.7-2.4c0.1-1.1,2.7-2.4,6.3-2.4c4.6,0,11.2,2.3,16.5,5.7l0.5-19.9
		c-4-1.8-9.5-3.3-17.4-3.3c-4.1,0-12.1,0.6-18.9,4.4c-2,1.1-3.9,2.5-5.5,4.1l0.3-6.4c-6-0.7-13-0.7-21.4,7c-0.3-1.6-0.7-3.3-1.2-4.8
		l-26.2,1.6c1.9,7,2.2,17.6,1.7,27.1l-0.5,10l-0.1,1.1c-0.3,5.2-0.6,10.5-1.1,15.5c-2.2-6.8-4.6-16-6.4-23.7l-12.9-58.1l-36.9,5.3
		c0.5,1.4,0.9,2.9,1.1,4.5c0.3,2.4,0.2,7.5-3.3,17.7c-5.9,17.2-14.4,42.7-22.6,60.3c-1.1,2.5-3.1,6.5-3.1,6.5h28.7
		c0.4-4.5,2.3-11.9,4.1-17.3c4-0.1,14.4-0.4,19.2-0.5c1,4.5,1.8,9,2.3,13.5l0.3,4.3h57.8c-1.4-9.1-0.8-21.6-0.4-28.7
		c0.5-8.1,2.1-13.2,5.5-16.7c2.1-2.1,4.9-3.4,7.8-3.4c-0.3,10.8,6.8,15.9,13.2,19l11.3,5.8c4.1,2.1,4,3.2,3.9,3.9
		c-0.2,2.2-3.4,3-6.4,2.9c-5.9-0.1-14-4.2-23.2-13.7l-0.5,25.8c7.3,4.1,16.1,5.6,24.1,5.6c13.1,0,27.2-5.7,31-17.9
		c6.4,12.3,19.4,18,32.1,18c11.3,0,19.8-3.7,27.3-11.5c-0.1,2.1-0.6,8.9-0.8,11h30.2c-1.8-8.1-2.5-19.3-2.8-27.7l-0.5-17.5
		c-0.1-1.5,0.4-2.9,1.4-4.1c0.9-0.9,2-1.4,3.3-1.5c1.4,0,3.8,0,4,4.9l0.7,18.6c0.3,8.4,0.4,20.1-0.7,27.2h29.5
		c-0.5-2.5-1.3-8.6-1.5-10.3c3.7,7.8,11.6,11.9,22.2,11.9c5.3-0.1,10.4-1.6,14.8-4.5c0.1,0.2,1.5,2.9,1.5,2.9h54.5
		c-2.4-8.2-3.9-19.6-4.9-28C466.8,182.6,459.4,121.6,459.4,121.6z M113.4,177l10.2-29.5l6.1,29L113.4,177z M276.2,167.4
		c-0.1-14.3,7.6-15.6,9.1-15.7c0.3,0,0.5,0,0.8,0c3.4,0,5.8,2.1,6.9,6l0,0c1.7,6,0.6,9-4.1,10.7l-12.4,4.8
		C276.3,171.3,276.2,169.3,276.2,167.4z M316.2,193.9l-6.9-8.7c-5.4,4.7-9.5,7.7-16.1,7.6c-5.2-0.1-8.4-3.6-10.4-7.5
		c5.7-2.1,27-10.1,33-12.4c0.1,4.4,0.2,10.4,0.2,10.4C316.2,187,316.2,190.4,316.2,193.9L316.2,193.9L316.2,193.9z M401.1,194.5
		c-1.6-1.5-2.4-3.6-2.5-6.4c-0.2-6.4,4.7-10.6,14.6-12.6l0.8,8.9l0.1,1.2c0.2,2.8,0.3,5.1,0.6,7.9c-1.8,1.8-4.3,2.9-7,3
		C405,196.6,402.7,195.9,401.1,194.5z"/>
</g>
</svg>
